<?xml version="1.0" encoding="UTF-8"?>
<svg width="66px" height="66px" viewBox="0 0 66 66" version="1.1" xmlns="http://www.w3.org/2000/svg" xmlns:xlink="http://www.w3.org/1999/xlink">
    <!-- Generator: Sketch 52.2 (67145) - http://www.bohemiancoding.com/sketch -->
    <title>余额</title>
    <desc>Created with Sketch.</desc>
    <g id="Page-1" stroke="none" stroke-width="1" fill="none" fill-rule="evenodd">
        <g id="我的订单" transform="translate(-179.000000, -237.000000)" fill="#FFFFFF">
            <g id="余额" transform="translate(179.000000, 237.000000)">
                <path d="M63.4151773,20.1564606 C61.7521242,16.224436 59.3671257,12.6985057 56.337533,9.66891298 C53.3079402,6.63932025 49.775564,4.26076765 45.8499854,2.59771462 C41.782596,0.870202168 37.4573689,0 33.003223,0 C28.5490771,0 24.22385,0.870202168 20.1564606,2.59126868 C16.224436,4.25432171 12.6985057,6.6328743 9.66891298,9.66891298 C6.63932025,12.6985057 4.26076765,16.2308819 2.59771462,20.1564606 C0.870202168,24.22385 0,28.5490771 0,33.003223 C0,37.4573689 0.870202168,41.782596 2.59126868,45.8499854 C4.25432171,49.78201 6.6328743,53.3079402 9.66891298,56.337533 C12.6985057,59.3671257 16.2308819,61.7456783 20.1564606,63.4087313 C24.22385,65.1297978 28.5490771,66 33.003223,66 C37.4573689,66 41.782596,65.1297978 45.8499854,63.4087313 C49.78201,61.7521242 53.3079402,59.3671257 56.337533,56.337533 C59.3671257,53.3079402 61.7456783,49.775564 63.4087313,45.8499854 C65.1297978,41.782596 66,37.4573689 66,33.003223 C66,28.5490771 65.1362438,24.22385 63.4151773,20.1564606 Z M59.8505713,44.3416349 C58.3808966,47.8095517 56.2795195,50.9293876 53.6044536,53.6044536 C50.9293876,56.2795195 47.8095517,58.3808966 44.3416349,59.8505713 C40.7512452,61.3718137 36.9352476,62.1388808 33.003223,62.1388808 C29.0711984,62.1388808 25.2552007,61.3718137 21.664811,59.8505713 C18.1968942,58.3808966 15.0770583,56.2795195 12.4019924,53.6044536 C9.72692646,50.9293876 7.62554937,47.8095517 6.1558746,44.3416349 C4.63463229,40.7512452 3.86756519,36.9352476 3.86756519,33.003223 C3.86756519,29.0711984 4.63463229,25.2552007 6.1558746,21.664811 C7.62554937,18.1968942 9.72692646,15.0770583 12.4019924,12.4019924 C15.0770583,9.72692646 18.1968942,7.62554937 21.664811,6.1558746 C25.2552007,4.63463229 29.0711984,3.86756519 33.003223,3.86756519 C36.9352476,3.86756519 40.7512452,4.63463229 44.3416349,6.1558746 C47.8095517,7.62554937 50.9293876,9.72692646 53.6044536,12.4019924 C56.2795195,15.0770583 58.3808966,18.1968942 59.8505713,21.664811 C61.3718137,25.2552007 62.1388808,29.0711984 62.1388808,33.003223 C62.1388808,36.9352476 61.3718137,40.7512452 59.8505713,44.3416349 Z" id="形状" fill-rule="nonzero"></path>
                <path d="M46.0580357,30.6797563 L37.5587054,30.6797563 L43.0091518,18.8071066 C43.4622768,17.8210061 43.0350446,16.6442596 42.0705357,16.1840794 C41.0995536,15.7238991 39.9408482,16.1577833 39.4877232,17.1373098 L33.5,30.180132 L27.5122768,17.1438838 C27.0591518,16.1577833 25.9004464,15.7304731 24.9294643,16.1906534 C23.9584821,16.6508336 23.5377232,17.8275801 23.9908482,18.8136806 L29.4412946,30.6863303 L20.9419643,30.6863303 C19.8738839,30.6863303 19,31.5738207 19,32.6585312 C19,33.7432418 19.8738839,34.6307322 20.9419643,34.6307322 L31.5580357,34.6307322 L31.5580357,38.8380942 L25.5703125,38.8380942 C24.2368304,38.8380942 23.1428571,39.7255846 23.1428571,40.8102951 C23.1428571,41.8950056 24.2368304,42.7824961 25.5703125,42.7824961 L31.5580357,42.7824961 L31.5580357,49.0277991 C31.5580357,50.1125096 32.4319196,51 33.5,51 C34.5680804,51 35.4419643,50.1125096 35.4419643,49.0277991 L35.4419643,42.7824961 L41.4296875,42.7824961 C42.7631696,42.7824961 43.8571429,41.8950056 43.8571429,40.8102951 C43.8571429,39.7255846 42.7631696,38.8380942 41.4296875,38.8380942 L35.4419643,38.8380942 L35.4419643,34.6307322 L46.0580357,34.6307322 C47.1261161,34.6307322 48,33.7432418 48,32.6585312 C48,31.5672467 47.1261161,30.6797563 46.0580357,30.6797563 Z" id="路径"></path>
            </g>
        </g>
    </g>
</svg>