<?xml version="1.0" encoding="UTF-8"?>
<svg width="31px" height="32px" viewBox="0 0 31 32" version="1.1" xmlns="http://www.w3.org/2000/svg" xmlns:xlink="http://www.w3.org/1999/xlink">
    <!-- Generator: Sketch 52.2 (67145) - http://www.bohemiancoding.com/sketch -->
    <title>收益</title>
    <desc>Created with Sketch.</desc>
    <g id="Page-1" stroke="none" stroke-width="1" fill="none" fill-rule="evenodd">
        <g id="我的订单" transform="translate(-47.000000, -712.000000)" fill="#1485EE" fill-rule="nonzero" stroke-width="0.5">
            <g id="收益" transform="translate(48.000000, 713.000000)">
                <path d="M27.0790277,15.6846337 L16.8519629,14.7864284 C16.5548829,14.7619636 16.2987794,14.5942054 16.1485321,14.3285883 C15.9982847,14.0629711 15.9846259,13.7519195 16.114385,13.4758174 L20.5705851,3.73885201 C20.8232739,3.18315297 20.8369327,2.54007988 20.6013176,1.97739092 C20.3657024,1.41470196 19.9047162,0.977831655 19.3378738,0.782113757 C17.6100292,0.184475175 15.7968167,-0.0706570856 13.9528718,0.0167169761 C6.41318591,0.380193073 0.290605879,6.7095701 0.0105994297,14.4264472 C-0.139647933,18.543513 1.311605,22.4438911 4.09801064,25.4041244 C6.88783099,28.3678525 10.6337709,30 14.6528879,30 C21.5506077,30 27.4307431,25.1979216 28.9468756,18.3198354 C29.0834641,17.704722 28.9537051,17.0651439 28.5917455,16.5583743 C28.2332007,16.0550997 27.6834319,15.7370582 27.0790277,15.6846337 Z M14.6528879,28.7697732 C10.9649981,28.7697732 7.52296757,27.2704343 4.96193298,24.5513535 C2.4043131,21.8322727 1.0691604,18.2534311 1.20916362,14.4718817 C1.46868179,7.38759282 7.08929905,1.5789652 14.0040925,1.24694377 C14.2226341,1.23645888 14.437761,1.22946895 14.6528879,1.22946895 C16.1212144,1.22946895 17.5622232,1.47062136 18.9451819,1.94593626 C19.1910412,2.02981536 19.3822651,2.21155341 19.4847065,2.45969574 C19.5871479,2.70434311 19.5837332,2.97345523 19.4710476,3.21460764 L15.0216769,12.955068 C14.7314263,13.5911512 14.7621587,14.3355782 15.10363,14.9437017 C15.448516,15.5518252 16.0597496,15.9537458 16.7461068,16.0131602 L26.9765863,16.9113656 C27.2395192,16.9358303 27.468305,17.0651439 27.6253818,17.2853265 C27.7824586,17.5055092 27.837094,17.7816112 27.7790439,18.0507233 C26.3824263,24.3591306 20.9871801,28.7697732 14.6528879,28.7697732 Z" id="形状" stroke="#0086F7"></path>
                <path d="M25.6597727,4.1586584 C25.428246,3.99628122 25.1446909,3.95790116 24.8819472,4.04647053 C24.6192034,4.13799221 24.4006839,4.3505587 24.2836198,4.63102838 L22.0906201,9.94223829 C21.9579475,10.2669927 21.9709546,10.6448886 22.1296415,10.9548814 C22.2883283,11.2648742 22.569282,11.4685838 22.8814527,11.4981069 L27.9568293,11.9940954 C27.985445,11.9970477 28.0114592,12 28.0400749,12 C28.2794058,12 28.5135339,11.8966691 28.6930321,11.7106734 C28.8881388,11.5099161 29,11.2205895 29,10.9135491 C29,8.13542313 27.7513169,5.61119608 25.6597727,4.1586584 Z M27.9277332,10.9227468 C27.8769582,10.9799714 27.8101489,11.0054045 27.7406673,10.9990463 L23.2270336,10.5380703 C23.1441902,10.5285328 23.0747085,10.4744874 23.034623,10.3918296 C22.991865,10.3091718 22.9891927,10.2106183 23.0239335,10.1216023 L24.9720915,5.16849467 C25.0014876,5.0921952 25.0576074,5.03497059 25.127089,5.01271658 C25.1457956,5.00635829 25.1698469,5 25.199243,5 C25.2366562,5 25.2794141,5.00953743 25.3248444,5.04132888 C27.0004207,6.26212049 27.9998872,8.38261008 27.9998872,10.7224607 C28.0025596,10.8241933 27.9571293,10.8941345 27.9277332,10.9227468 Z" id="形状" stroke="#1485EE"></path>
            </g>
        </g>
    </g>
</svg>