<?xml version="1.0" standalone="no"?><!DOCTYPE svg PUBLIC "-//W3C//DTD SVG 1.1//EN" "http://www.w3.org/Graphics/SVG/1.1/DTD/svg11.dtd"><svg t="1552728174695" class="icon" style="" viewBox="0 0 1024 1024" version="1.1" xmlns="http://www.w3.org/2000/svg" p-id="3158" xmlns:xlink="http://www.w3.org/1999/xlink" width="128" height="128"><defs><style type="text/css"></style></defs><path d="M512 32C246.58823562 32 32 246.58823562 32 512s214.58823562 480 480 480 480-214.58823562 480-480S777.41176438 32 512 32z m268.23529406 381.17647031L492.23529406 709.64705844c-8.47058813 5.64705844-16.94117625 11.29411781-28.23529406 11.29411781s-22.58823563-5.64705844-31.05882375-14.11764656l-163.76470594-180.70588219c-16.94117625-16.94117625-14.1176475-45.17647031 2.82352969-59.29411781 16.94117625-16.94117625 45.17647031-14.1176475 59.29411781 2.82352875l132.70588219 146.82352969 256.94117625-262.58823563c16.94117625-16.94117625 42.35294156-16.94117625 59.29411781 0 16.94117625 16.94117625 16.94117625 42.35294156 0 59.29411781z" p-id="3159"></path></svg>