<?xml version="1.0" standalone="no"?><!DOCTYPE svg PUBLIC "-//W3C//DTD SVG 1.1//EN" "http://www.w3.org/Graphics/SVG/1.1/DTD/svg11.dtd"><svg t="1552811729660" class="icon" style="" viewBox="0 0 1024 1024" version="1.1" xmlns="http://www.w3.org/2000/svg" p-id="5745" xmlns:xlink="http://www.w3.org/1999/xlink" width="128" height="128"><defs><style type="text/css"></style></defs><path d="M516.37579156 789.37185031c4.69141781 0 9.46476375-0.288765 14.27034469-0.85957875 46.08549094-5.53084969 85.21914094-37.74355031 99.66274406-82.13406 1.09059-3.32012156-0.48351281-6.87797063-3.66261-8.33656781-3.14283375-1.46396906-6.94646812-0.19877719-8.72472093 2.78019938-0.16788656 0.28339219-18.47824969 29.85826219-89.76147563 39.48553968-10.67086031 1.431735-21.05429906 2.18252344-30.89647125 2.18252344-49.94150531-0.03223406-72.19652813-18.85565812-72.40067812-19.0289175-2.51292375-2.23490344-6.34879219-2.29265719-8.92484157-0.11550562-2.60156813 2.17715062-3.20058656 5.96063906-1.42636312 8.85634406C436.25233906 767.44722875 475.26511063 789.37185031 516.37579156 789.37185031L516.37579156 789.37185031zM516.37579156 789.37185031M899.66046125 347.59421281c-0.62856656 0-1.20072375 0.11550563-1.79839875 0.11550563C856.09460938 166.88665531 696.50313312 32 505.15963625 32c-196.60572844 0-359.85981469 142.33543969-396.04403625 330.64220719C73.93332406 368.97353938 47.15477 399.89687281 47.15477 437.29390625l0 149.67543375c0 41.95011281 33.64040719 75.96792844 75.17684719 75.96792844 23.43022688 0 44.11114594-11.06438625 57.86843062-28.05717657 33.24150844 87.92009719 100.91450531 158.80979719 186.55806282 196.2122025 0.20415-0.44590594 1.82526094-3.59948437 3.77677218-6.11240812 1.34846344-1.74198937 2.85944156-3.1683525 4.15552407-3.1683525 1.34309156 0 2.57604938 0.48754219 3.63037593 1.23161438-19.82134125-14.75788687-91.41885-90.61568156-106.92752437-196.47410532-6.80410031-46.59317906 28.09478344-92.33215219 68.73941062-99.89778562 65.25006-12.14960344 130.15897406-25.99015875 195.40903407-37.91009438 41.47868719-7.56563344 69.82462875-30.31894219 87.15856406-68.20351781 4.06150781-8.85634406 9.92678719-26.76243656 12.61834219-52.58605219 0.71318156-3.83989781 3.86138719-6.78798281 7.89603375-6.78798281 2.691555 0 4.97883938 1.37398219 6.49518937 3.35235562l1.79974219-1.11745218c25.71751125 37.33793719 76.71871594 120.01192031 84.0425925 207.18660187 8.41043719 99.66677344 3.71901937 167.92938656-72.56856375 237.76476-0.08998688 0.08864437-0.2054925 0.19877719-0.31562625 0.288765-1.05969938 1.14297094-1.68960844 2.63245875-1.68960844 4.26968719 0 2.14626 1.14431344 3.98226563 2.80168875 5.09971781 0.62991 0.25787344 1.25982 0.60304781 1.88972906 0.86092125 0.51306094 0.11550563 1.00194563 0.28339219 1.51635 0.28339219 0.51843281 0 0.97508438-0.16788656 1.431735-0.28339219 1.08656062-0.57215719 2.11402594-1.23295781 3.17372438-1.805115 77.14984875-42.50212312 136.33450781-113.4804675 163.68387562-198.8513775 11.07110156 16.44749531 28.40503688 28.28415938 48.54066094 32.41282125C851.71881781 797.53515875 720.70966719 889.46975563 558.39977375 903.42447406c-9.72666656-24.12863438-33.67129781-41.2637925-61.7916-41.2637925-36.72548719 0-66.50450719 29.08732781-66.50450719 64.93577625 0 35.84979188 29.77364719 64.90354219 66.50450719 64.90354219 29.61113344 0 54.40997062-19.02354469 63.019185-45.16144406 187.8810075-15.27229031 338.49123281-126.94764281 369.93299906-300.46429032 27.77512781-11.60968125 47.28084188-38.85966 47.28084188-70.66943343L976.84120062 424.25651937C976.84120062 381.92765469 942.28346188 347.59421281 899.66046125 347.59421281L899.66046125 347.59421281zM830.35023594 391.0982825C781.348895 258.35788625 654.36901719 163.53295719 504.99174969 163.53295719c-148.75273031 0-275.27595656 94.02176062-324.73394906 225.90257812-2.46054281-3.01121062-5.34684656-5.58726-8.17942594-8.1955425C200.07779844 220.53106344 338.39067969 98.34065 505.15963625 98.34065c165.97116 0 303.85290938 120.98834719 332.77100719 280.58116688C835.07254531 382.76171469 832.43874313 386.76949906 830.35023594 391.0982825L830.35023594 391.0982825zM830.35023594 391.0982825M366.76885531 831.09229437c-0.00537281 0-0.00537281 0-0.01074468 1e-8C366.72722 831.15944844 366.72722 831.17019313 366.76885531 831.09229437L366.76885531 831.09229437zM366.76885531 831.09229437" p-id="5746" fill="#13227a"></path></svg>