<?xml version="1.0" encoding="UTF-8"?>
<svg width="54px" height="64px" viewBox="0 0 54 64" version="1.1" xmlns="http://www.w3.org/2000/svg" xmlns:xlink="http://www.w3.org/1999/xlink">
    <!-- Generator: Sketch 52.2 (67145) - http://www.bohemiancoding.com/sketch -->
    <title>收益规则</title>
    <desc>Created with Sketch.</desc>
    <g id="Page-1" stroke="none" stroke-width="1" fill="none" fill-rule="evenodd">
        <g id="我的订单" transform="translate(-511.000000, -238.000000)" fill="#FFFFFF">
            <g id="收益规则" transform="translate(511.000000, 238.000000)">
                <path d="M1.81051411,44 C1.01940095,44 0.228287786,43.4078012 0.0305095119,42.4208033 C-0.167268763,41.4338054 0.623844398,40.4468075 1.61273583,40.2494079 C21.1927865,36.893615 38.597276,23.6678429 47.6950773,4.91488254 C47.8928556,4.32268378 48.2884122,3.73048507 48.4861904,3.1382863 C48.881747,2.1512884 50.0684168,1.7564892 50.8595299,2.1512884 C51.8484214,2.54608754 52.243978,3.73048507 51.8484214,4.52008341 C51.6506431,5.11228217 51.2550865,5.70448088 51.0573082,6.29667964 C41.366172,26.0366379 22.9727911,40.0520083 2.20607066,43.8026004 C2.00829238,44 1.81051411,44 1.81051411,44 Z" id="路径"></path>
                <path d="M52.3216716,12 C51.5912968,12 50.8609221,11.411684 50.6783284,10.4311573 L49.0349853,2.19473285 C48.8523916,1.21420615 49.4001726,0.233679444 50.3131411,0.0375741156 C51.2261095,-0.158531213 52.1390779,0.429784772 52.3216716,1.41031147 L53.9650147,9.84284127 C54.1476084,10.823368 53.5998274,11.8038947 52.686859,12 L52.3216716,12 Z" id="路径"></path>
                <path d="M43.1758944,6.31293361 C42.3840503,6.31293361 41.5922062,5.71410591 41.3942451,4.91566901 C40.9983231,3.91762289 41.5922061,2.91957677 42.5820113,2.52035835 L50.5004526,0.125047626 C51.4902577,-0.274170796 52.4800629,0.324656837 52.8759849,1.32270296 C53.2719069,2.32074907 52.6780239,3.31879519 51.6882187,3.71801368 L43.7697775,6.1133244 C43.5718165,6.1133244 43.3738555,6.31293361 43.1758944,6.31293361 Z M50.5004526,64 C49.5106475,64 48.7188033,63.2015631 48.7188033,62.203517 L48.7188033,21.8824533 C48.7188033,20.8844071 49.5106474,20.0859702 50.5004526,20.0859702 C51.4902578,20.0859702 52.2821019,20.8844071 52.2821019,21.8824533 L52.2821019,62.203517 C52.2821019,63.2015631 51.4902577,64 50.5004526,64 Z M34.8615311,64 C33.871726,64 33.0798818,63.2015631 33.0798818,62.203517 L33.0798818,37.6515821 C33.0798818,36.653536 33.871726,35.8550991 34.8615311,35.8550991 C35.8513362,35.8550991 36.6431804,36.653536 36.6431804,37.6515821 L36.6431804,62.203517 C36.8411414,63.2015631 36.0492973,64 34.8615311,64 Z M19.4205708,64 C18.4307656,64 17.6389215,63.2015631 17.6389214,62.203517 L17.6389214,49.029308 C17.6389214,48.0312619 18.4307656,47.232825 19.4205708,47.232825 C20.410376,47.232825 21.20222,48.0312619 21.20222,49.029308 L21.20222,62.203517 C21.20222,63.2015631 20.4103759,64 19.4205708,64 Z M3.78164927,64 C2.79184413,64 2,63.2015631 2,62.203517 L2,53.6203202 C2,52.6222741 2.79184413,51.8238372 3.78164927,51.8238372 C4.77145441,51.8238372 5.56329853,52.6222741 5.56329859,53.6203202 L5.56329859,62.203517 C5.56329859,63.2015631 4.77145447,64 3.78164927,64 Z" id="形状" fill-rule="nonzero"></path>
            </g>
        </g>
    </g>
</svg>