<?xml version="1.0" encoding="UTF-8"?>
<svg width="94px" height="92px" viewBox="0 0 94 92" version="1.1" xmlns="http://www.w3.org/2000/svg" xmlns:xlink="http://www.w3.org/1999/xlink">
    <!-- Generator: Sketch 52.2 (67145) - http://www.bohemiancoding.com/sketch -->
    <title>订购完成</title>
    <desc>Created with Sketch.</desc>
    <g id="Page-1" stroke="none" stroke-width="1" fill="none" fill-rule="evenodd">
        <g id="我的订单" transform="translate(-59.000000, -317.000000)" fill="#62E283">
            <g id="订购完成" transform="translate(59.000000, 317.000000)">
                <path d="M77.6294118,92 L5.3705882,92 C2.44117643,92 0,89.5789474 0,86.6736842 L0,5.32631576 C0,2.4210526 2.44117643,0 5.3705882,0 L77.6294118,0 C80.5588236,0 83,2.4210526 83,5.32631576 L83,60.5263158 C83,61.9789474 82.0235294,62.9473684 80.5588236,62.9473684 C79.0941177,62.9473684 78.1176471,61.9789474 78.117647,60.5263158 L78.117647,5.32631576 C78.117647,5.08421053 77.8735294,4.84210519 77.6294118,4.84210519 L5.3705882,4.84210519 C5.12647059,4.84210519 4.88235287,5.08421042 4.88235287,5.32631576 L4.88235287,86.6736842 C4.88235287,86.9157895 5.12647048,87.1578948 5.3705882,87.1578948 L77.6294118,87.1578948 C79.0941177,87.1578948 80.0705882,88.1263158 80.0705882,89.5789474 C80.0705882,91.031579 78.85,92 77.6294118,92 Z" id="路径"></path>
                <path d="M74.4,81 C73.62,81 73.1,80.74 72.5800001,80.22 L64.78,72.42 C63.74,71.3800001 63.74,69.8200001 64.78,68.78 C65.8199999,67.7399999 67.38,67.7400001 68.4199999,68.78 L76.22,76.58 C77.26,77.6199999 77.26,79.1799999 76.22,80.22 C75.7,80.74 75.1800001,81 74.4,81 Z" id="路径"></path>
                <path d="M74.8484848,82 C74.130303,82 73.6515151,81.7586207 73.1727273,81.2758621 C72.2151515,80.3103449 72.2151515,78.862069 73.1727273,77.8965517 L89.930303,61 C90.8878787,60.0344828 92.3242423,60.0344828 93.2818182,61 C94.239394,61.9655172 94.2393939,63.4137931 93.2818182,64.3793103 L76.5242423,81.2758621 C76.0454544,81.7586207 75.5666666,82 74.8484848,82 Z M64.7939393,30.8275862 L17.8727273,30.8275862 C16.4363636,30.8275862 15.4787879,29.862069 15.4787878,28.4137932 C15.4787877,26.9655173 16.4363635,26.0000001 17.8727273,26 L64.7939393,26 C66.230303,26 67.1878787,26.9655172 67.1878787,28.4137932 C67.1878787,29.8620691 65.990909,30.8275862 64.7939393,30.8275862 Z M64.3151514,60.0344827 L17.3939394,60.0344827 C15.9575757,60.0344827 15,59.0689655 15,57.6206897 C15,56.1724138 15.9575757,55.2068966 17.3939394,55.2068966 L64.3151514,55.2068966 C65.7515151,55.2068966 66.7090908,56.1724138 66.7090909,57.6206897 C66.709091,59.0689655 65.7515152,60.0344827 64.3151514,60.0344827 Z M64.7939393,45.0689656 L17.8727273,45.0689656 C16.4363636,45.0689656 15.4787879,44.1034484 15.4787878,42.6551724 C15.4787877,41.2068964 16.4363635,40.2413793 17.8727273,40.2413793 L64.7939393,40.2413793 C66.230303,40.2413793 67.1878787,41.2068965 67.1878787,42.6551724 C67.1878787,44.1034483 65.990909,45.0689655 64.7939393,45.0689656 Z" id="形状" fill-rule="nonzero"></path>
            </g>
        </g>
    </g>
</svg>