<?xml version="1.0" encoding="UTF-8"?>
<svg width="30px" height="28px" viewBox="0 0 30 28" version="1.1" xmlns="http://www.w3.org/2000/svg" xmlns:xlink="http://www.w3.org/1999/xlink">
    <!-- Generator: Sketch 52.2 (67145) - http://www.bohemiancoding.com/sketch -->
    <title>推广订单</title>
    <desc>Created with Sketch.</desc>
    <g id="Page-1" stroke="none" stroke-width="1" fill="none" fill-rule="evenodd">
        <g id="我的订单" transform="translate(-49.000000, -603.000000)" fill="#1485EE">
            <g id="推广订单" transform="translate(49.000000, 603.000000)">
                <path d="M4.91159381e-16,12.3502509 C4.91159381e-16,12.9484564 2.24443918,14.17579 3.68720652,14.964819 C4.00410797,15.1382949 4.28306004,15.2909537 4.51244982,15.4241427 L4.513383,15.4241427 L9.59113328,18.4094777 L9.69882931,18.4729058 L9.69882931,18.5965285 L9.70035005,26.6825937 C9.72952061,27.0831378 9.78561517,27.4321443 9.93647947,27.6671621 L9.93578823,27.6676 C10.068853,27.8747605 10.2975515,28 10.6877941,28 C11.5803647,28 11.6907566,27.156604 11.6907566,26.2086171 C11.6907566,25.9978524 11.6874731,25.8368735 11.6842934,25.6805094 C11.6811482,25.5142757 11.6775538,25.3478062 11.6771045,25.1801914 C11.6752727,24.3169214 11.6759293,23.4532136 11.6764132,22.5896741 L11.676828,20.7907796 C11.676828,20.3600878 11.6640399,20.0097002 11.6541897,19.7233471 C11.6068739,18.3713803 11.6048348,18.3160702 12.9028553,17.3394514 C13.3357477,17.0138893 13.7189051,16.6766387 14.103514,16.3377712 C14.4953464,15.9929079 14.8903932,15.645215 15.3272948,15.3138929 C15.7299452,15.008609 16.1079182,14.6732784 16.480776,14.3427647 C16.86656,14.0004614 17.2487496,13.6619308 17.653923,13.3586343 C18.4190625,12.7859954 19.5317602,11.8212336 20.6430409,10.8579877 C21.7903354,9.86344865 22.9370423,8.86954966 23.7173892,8.29364336 C24.2527588,7.89845516 24.5336809,7.54540645 24.6455935,7.24379418 C24.7206628,7.0415516 24.7161697,6.86389881 24.6621834,6.71605692 C24.6079207,6.56690134 24.5018836,6.44226817 24.3764571,6.34859118 C24.2077241,6.22281274 24.0095095,6.15416344 23.8520093,6.15416344 C23.4049118,6.15416344 22.6878484,6.81320343 22.3130206,7.15769624 L22.2297946,7.23375616 L22.2216725,7.24062783 L19.8019335,9.26160518 C19.592417,9.45145182 19.460562,9.54485932 19.3267023,9.63974896 L19.3261493,9.63914263 C19.2181768,9.71587624 19.1070936,9.79459725 18.9375311,9.94203492 L18.9339021,9.944696 L11.5726918,16.1062904 L11.5724845,16.1059872 C10.5706625,16.9905122 10.5448445,16.9747478 9.53337973,16.3275648 L9.53296499,16.3282722 C9.3204416,16.1924894 9.05738817,16.0242009 8.74300977,15.8404512 C8.5737929,15.7416542 8.28965649,15.570772 7.94109601,15.361523 C6.53040244,14.5140174 4.03400433,13.0142088 3.53527079,12.9008937 L2.86918675,12.7495486 L3.49846197,12.48728 L27.4018999,2.52733823 L27.7140318,2.39745026 L27.7140318,2.72816605 C27.7140318,3.38171544 27.5486859,4.10152252 27.4018999,4.74264228 C27.3394459,5.01531944 27.2798605,5.27411853 27.2382476,5.51233631 C27.1463119,6.03680615 27.0484661,6.52169655 26.9553554,6.98472561 C26.8701594,7.40972472 26.7880394,7.81703939 26.7185693,8.21310339 L26.7177398,8.21660659 L24.6149368,18.9969378 C24.4622407,19.8925787 24.2974478,20.815201 24.1208692,21.723002 C23.9423205,22.6421885 23.7516404,23.5445326 23.5505917,24.3860423 L23.477216,24.6935494 L23.2078031,24.5174461 C22.3841843,23.9798729 21.5360953,23.4601189 20.6809902,22.9367944 C20.1784894,22.6290178 19.672878,22.3193549 19.1942597,22.0200669 C19.0103884,21.9052696 18.758153,21.7349264 18.4701801,21.5408692 C17.356653,20.7902407 15.6787239,19.6593462 14.8449783,19.6593462 C14.812628,19.6593462 14.6068789,19.7428168 14.4006112,19.9057157 C14.2874889,19.9949126 14.1847007,20.1068804 14.1335486,20.2374757 C14.085749,20.3592794 14.0819471,20.5055044 14.1580187,20.6758476 C14.2827885,20.9550933 14.6037337,21.2922092 15.2403707,21.69053 C15.675959,21.962803 16.0918467,22.2097451 16.5012368,22.4522745 C17.0760073,22.793062 17.6384046,23.1266073 18.226689,23.5139807 L18.3709519,23.6090724 C19.714802,24.4945405 23.4985755,26.9872376 24.3716875,26.9872376 C24.6166303,26.9872376 24.7875753,26.8367683 24.9081976,26.6313931 C25.0499375,26.3895374 25.1283939,26.0730028 25.1753294,25.8044015 L25.1761589,25.8008646 L29.7962356,1.94058548 L29.7962356,1.93906967 C29.8260629,1.79233938 29.8575491,1.66282194 29.8870998,1.53970458 C30.0071692,1.04494458 30.1002454,0.660872316 29.7906366,0.28835388 C29.297986,-0.303485249 28.3312102,0.123231773 27.2356554,0.606875837 C27.0410698,0.692569562 26.8405741,0.781395958 26.6634079,0.855805328 C25.5349844,1.33062402 24.3876553,1.79341729 23.2415014,2.25584003 C22.1333313,2.70270047 21.0239862,3.15036933 19.8322446,3.65166415 L19.8294451,3.65257364 L2.70809201,10.5996265 L2.70449754,10.6004349 C2.55525766,10.6581704 2.40404773,10.7120321 2.24291844,10.7691276 C1.31039386,11.1000792 0,11.5654662 4.91159381e-16,12.3502509 Z" id="路径"></path>
            </g>
        </g>
    </g>
</svg>