<?xml version="1.0" encoding="UTF-8"?>
<svg width="24px" height="30px" viewBox="0 0 24 30" version="1.1" xmlns="http://www.w3.org/2000/svg" xmlns:xlink="http://www.w3.org/1999/xlink">
    <!-- Generator: Sketch 52.2 (67145) - http://www.bohemiancoding.com/sketch -->
    <title>记录</title>
    <desc>Created with Sketch.</desc>
    <g id="Page-1" stroke="none" stroke-width="1" fill="none" fill-rule="evenodd">
        <g id="我的订单" transform="translate(-50.000000, -821.000000)" fill="#FA9C3B" fill-rule="nonzero">
            <g id="记录" transform="translate(50.000000, 821.000000)">
                <path d="M13.0052714,11 L4,11 L4,12.4959384 L13.0052714,12.4959384 L13.0052714,11 Z M15.6966029,17.2520308 L4,17.2520308 L4,18.7479692 L15.6966029,18.7479692 L15.6966029,17.2520308 Z M19,23.5040616 L4,23.5040616 L4,25 L19,25 L19,23.5040616 Z" id="形状"></path>
                <path d="M17.7250674,1.5029297 L16.2166136,0 L3.01396716,0 C1.3496692,0 0,1.34472656 0,3.00292968 L0,26.9970703 C0,28.6552734 1.3496692,30 3.01396716,30 L20.9860328,30 C22.6503308,30 24,28.6552734 24,26.9970703 L24,7.75488281 L17.7250674,1.5029297 Z M17.3839745,2.75390624 L17.4016173,2.75390624 L21.2212693,6.55957031 L21.2212693,6.56249999 L17.3839745,6.56249999 L17.3839745,2.75390624 Z M22.4944866,26.9970703 C22.4944866,27.8261719 21.8181818,28.5 20.9860328,28.5 L3.01396716,28.5 C2.18181816,28.5 1.50551334,27.8261719 1.50551334,26.9970703 L1.50551334,3.00292968 C1.50551334,2.17382811 2.18181816,1.49999999 3.01396716,1.50000001 L16.1813281,1.50000001 L16.1813281,7.7607422 L22.4944866,7.7607422 L22.4944866,26.9970703 Z" id="形状"></path>
            </g>
        </g>
    </g>
</svg>