<?xml version="1.0" standalone="no"?><!DOCTYPE svg PUBLIC "-//W3C//DTD SVG 1.1//EN" "http://www.w3.org/Graphics/SVG/1.1/DTD/svg11.dtd"><svg t="1552116631328" class="icon" style="" viewBox="0 0 1024 1024" version="1.1" xmlns="http://www.w3.org/2000/svg" p-id="1094" xmlns:xlink="http://www.w3.org/1999/xlink" width="128" height="128"><defs><style type="text/css"></style></defs><path d="M546.133333 1024c-266.24 0-477.866667-211.626667-477.866667-477.866667s211.626667-477.866667 477.866667-477.866667c266.24 0 477.866667 211.626667 477.866667 477.866667C1024 812.373333 812.373333 1024 546.133333 1024L546.133333 1024zM546.133333 122.88C314.026667 122.88 122.88 314.026667 122.88 546.133333c0 109.226667 40.96 211.626667 109.226667 286.72 61.44-27.306667 40.96-6.826667 116.053333-40.96 81.92-34.133333 102.4-47.786667 102.4-47.786667l0-75.093333c0 0-34.133333-20.48-40.96-95.573333C395.946667 580.266667 389.12 552.96 389.12 532.48c0-20.48-13.653333-68.266667 13.653333-68.266667-6.826667-34.133333-6.826667-68.266667-6.826667-88.746667C395.946667 320.853333 457.386667 259.413333 546.133333 252.586667c109.226667 6.826667 150.186667 68.266667 157.013333 129.706667 0 20.48 0 47.786667-6.826667 88.746667 20.48-6.826667 13.653333 47.786667 13.653333 68.266667 0 20.48-6.826667 47.786667-27.306667 40.96C669.013333 648.533333 641.706667 669.013333 641.706667 669.013333l0 75.093333c0 0 20.48 13.653333 102.4 47.786667 81.92 34.133333 54.613333 6.826667 116.053333 40.96 68.266667-75.093333 109.226667-177.493333 109.226667-286.72C969.386667 314.026667 778.24 122.88 546.133333 122.88L546.133333 122.88zM546.133333 122.88" p-id="1095"></path></svg>