<?xml version="1.0" encoding="UTF-8"?>
<svg width="29px" height="24px" viewBox="0 0 29 24" version="1.1" xmlns="http://www.w3.org/2000/svg" xmlns:xlink="http://www.w3.org/1999/xlink">
    <!-- Generator: Sketch 52.2 (67145) - http://www.bohemiancoding.com/sketch -->
    <title>提现</title>
    <desc>Created with Sketch.</desc>
    <g id="Page-1" stroke="none" stroke-width="1" fill="none" fill-rule="evenodd">
        <g id="我的订单" transform="translate(-51.000000, -495.000000)" fill="#F75356">
            <g id="提现" transform="translate(51.000000, 495.000000)">
                <path d="M25.0951865,24 L3.90481353,24 C1.74968023,23.9962301 0.00346206305,22.0947656 0,19.7480315 L0,4 L25.0951865,4 C27.2503198,4.00376986 28.9965379,5.90523444 29,8.25196851 L29,19.7480315 C28.9965379,22.0947656 27.2503198,23.9962301 25.0951865,24 Z M1.88638334,6.04039712 L1.88638334,19.7343375 C1.8898355,20.9466313 2.79149839,21.9284559 3.90481353,21.932215 L25.0951865,21.932215 C26.2085016,21.9284559 27.1101645,20.9466313 27.1136167,19.7343375 L27.1136167,8.23827456 C27.1101645,7.02598084 26.2085016,6.04415619 25.0951865,6.04039712 L1.88638334,6.04039712 Z" id="形状" fill-rule="nonzero"></path>
                <path d="M1.88214205,6.0168895 L0,6.0168895 L0,4.07811399 C0.00345410005,1.8273602 1.71484858,0.00368072415 3.82702217,0 L15.3080887,0 C17.4202623,0.00368072456 19.1316568,1.8273602 19.1351109,4.07811399 L19.1351109,5.87649543 L17.2529689,5.87649543 L17.2529689,4.07811399 C17.2495252,2.93503606 16.3807867,2.00929946 15.3080887,2.00562983 L3.82702217,2.00562983 C2.7543242,2.00929946 1.88558574,2.93503606 1.88214205,4.07811399 L1.88214205,6.0168895 Z M28,19 L20.7035626,19 C18.2053651,18.9999768 16.1801873,16.8419079 16.1801873,14.179803 C16.1801873,11.517698 18.2053651,9.35962912 20.7035626,9.35960591 L27.8682501,9.35960591 L27.8682501,11.3652357 L20.7035626,11.3652357 C19.2430955,11.3652357 18.059153,12.626857 18.059153,14.1831457 C18.059153,15.7394343 19.2430955,17.0010556 20.7035626,17.0010556 L28,17.0010556 L28,19 Z" id="形状" fill-rule="nonzero"></path>
                <path d="M23.08822,15 L20.91178,15 C20.4081958,14.9999176 20,14.5522265 20,14 C20,13.4477735 20.4081958,13.0000824 20.91178,13 L23.08822,13 C23.5918042,13.0000824 24,13.4477735 24,14 C24,14.5522265 23.5918042,14.9999176 23.08822,15 Z" id="路径"></path>
            </g>
        </g>
    </g>
</svg>